<svg width="26" height="32" viewBox="0 0 26 32" fill="none" xmlns="http://www.w3.org/2000/svg">
<path d="M10.25 6.375C5.69325 6.375 2 9.45363 2 13.25C2 15.439 3.23475 17.3805 5.15013 18.6372L4.0625 20.8125L7.02563 19.5434C7.66088 19.7689 8.32088 19.9545 9.02625 20.0411C8.93 19.6217 8.875 19.1914 8.875 18.75C8.875 14.9591 12.5751 11.875 17.125 11.875C17.5416 11.875 17.9486 11.9094 18.3501 11.9589C17.6241 8.77987 14.276 6.375 10.25 6.375ZM7.5 11.5312C6.93075 11.5312 6.46875 11.0693 6.46875 10.5C6.46875 9.93075 6.93075 9.46875 7.5 9.46875C8.06925 9.46875 8.53125 9.93075 8.53125 10.5C8.53125 11.0693 8.06925 11.5312 7.5 11.5312ZM13 11.5312C12.4308 11.5312 11.9688 11.0693 11.9688 10.5C11.9688 9.93075 12.4308 9.46875 13 9.46875C13.5693 9.46875 14.0313 9.93075 14.0313 10.5C14.0313 11.0693 13.5693 11.5312 13 11.5312Z" fill="white"/>
<path d="M24 18.75C24 15.7126 20.9214 13.25 17.125 13.25C13.3286 13.25 10.25 15.7126 10.25 18.75C10.25 21.7874 13.3286 24.25 17.125 24.25C17.7492 24.25 18.3433 24.162 18.9194 24.0369L22.625 25.625L21.3435 23.0634C22.9495 22.0569 24 20.5086 24 18.75ZM15.0625 18.4062C14.4932 18.4062 14.0312 17.9443 14.0312 17.375C14.0312 16.8057 14.4932 16.3438 15.0625 16.3438C15.6318 16.3438 16.0938 16.8057 16.0938 17.375C16.0938 17.9443 15.6318 18.4062 15.0625 18.4062ZM19.1875 18.4062C18.6182 18.4062 18.1562 17.9443 18.1562 17.375C18.1562 16.8057 18.6182 16.3438 19.1875 16.3438C19.7568 16.3438 20.2188 16.8057 20.2188 17.375C20.2188 17.9443 19.7568 18.4062 19.1875 18.4062Z" fill="white"/>
</svg>
